<?xml version="1.0" encoding="utf-8"?>
<!-- Generator: Adobe Illustrator 23.0.3, SVG Export Plug-In . SVG Version: 6.00 Build 0)  -->
<svg version="1.1" id="Слой_1" xmlns="http://www.w3.org/2000/svg" xmlns:xlink="http://www.w3.org/1999/xlink" x="0px" y="0px"
	 viewBox="0 0 90 90" style="enable-background:new 0 0 90 90;" xml:space="preserve">
<style type="text/css">
	.st0{fill:none;stroke:#2D3547;stroke-width:2;stroke-linecap:round;stroke-linejoin:round;stroke-miterlimit:10;}
	.st1{fill:none;stroke:#2D3547;stroke-width:4;stroke-linecap:round;stroke-linejoin:round;stroke-miterlimit:10;}
	.st2{fill:none;stroke:#2D3547;stroke-width:2;stroke-miterlimit:10;}
	.st3{fill:#2D3547;}
	.st4{fill:none;stroke:#61AAEB;stroke-width:4;stroke-linecap:round;stroke-linejoin:round;stroke-miterlimit:10;}
</style>
<line class="st0" x1="15.4" y1="29.2" x2="28.6" y2="29.2"/>
<line class="st0" x1="28.6" y1="34.5" x2="15.5" y2="34.5"/>
<line class="st0" x1="15.4" y1="39.8" x2="28.6" y2="39.8"/>
<line class="st0" x1="28.6" y1="45.1" x2="15.5" y2="45.1"/>
<line class="st0" x1="15.4" y1="50.4" x2="28.6" y2="50.4"/>
<line class="st0" x1="28.6" y1="55.7" x2="15.5" y2="55.7"/>
<path class="st1" d="M58.7,64.5H11.9c-2.2,0-4-1.8-4-4V18.8h71l0.1,11.3"/>
<path class="st1" d="M78.9,19.4v-3.7c0-2.1-1.7-3.9-3.9-3.9H11.8c-2.1,0-3.9,1.7-3.9,3.9v3.7"/>
<path class="st0" d="M58.8,79.2H28.1c-1.1,0-2-0.9-2-2v0c0-1.1,0.9-2,2-2h30.7c1.1,0,2,0.9,2,2v0C60.8,78.3,59.9,79.2,58.8,79.2z"/>
<polygon class="st0" points="53.5,75.2 33.4,75.2 35.4,64.5 51.5,64.5 "/>
<path class="st2" d="M44.1,30.9v7.9c0,1.1-0.9,2-2,2h-5.8c-1.1,0-2-0.9-2-2v-7.9c0-1.1,0.9-2,2-2h5.8C43.2,28.9,44.1,29.8,44.1,30.9
	z"/>
<path class="st2" d="M44.1,46.5v7.9c0,1.1-0.9,2-2,2h-5.8c-1.1,0-2-0.9-2-2v-7.9c0-1.1,0.9-2,2-2h5.8C43.2,44.5,44.1,45.4,44.1,46.5
	z"/>
<path class="st2" d="M58.8,30.9v7.9c0,1.1-0.9,2-2,2H51c-1.1,0-2-0.9-2-2v-7.9c0-1.1,0.9-2,2-2h5.8C57.9,28.9,58.8,29.8,58.8,30.9z"
	/>
<path class="st2" d="M58.8,46.5v7.9c0,1.1-0.9,2-2,2H51c-1.1,0-2-0.9-2-2v-7.9c0-1.1,0.9-2,2-2h5.8C57.9,44.5,58.8,45.4,58.8,46.5z"
	/>
<g>
	<path class="st3" d="M69,26.2c0,0.7,1,2.2,2,2.2c-0.9,0-1.5,0.8-2,1.9c0,0-1.2-1.9-2.1-1.9C67.8,28.4,69,27.1,69,26.2 M69,24.2
		C69,24.2,69,24.2,69,24.2c-1.1,0-1.9,0.8-2,1.8c-0.1,0.1-0.2,0.3-0.3,0.4c-1,0.1-1.8,1-1.8,2c0,1,0.7,1.7,1.6,2
		c0.2,0.2,0.6,0.7,0.8,1c0.4,0.6,1,0.9,1.7,0.9c0.1,0,0.1,0,0.2,0c0.8-0.1,1.4-0.6,1.7-1.3c0.1-0.3,0.3-0.5,0.3-0.6
		c1-0.1,1.8-1,1.8-2c0-1-0.7-1.8-1.7-2c-0.1-0.1-0.3-0.3-0.3-0.5C70.9,25,70,24.2,69,24.2L69,24.2z"/>
</g>
<g>
	<g>
		<path class="st0" d="M81.4,43.3c2,1.6,3.2,4,3.2,6.6v25.3"/>
		<path class="st0" d="M66,75.3V50c0-2.6,1.2-4.9,3-6.4"/>
		<path class="st4" d="M70.5,56.4c1.1-1.7,2.8-2.8,4.8-2.8c2,0,3.7,1.1,4.8,2.8"/>
		<path class="st4" d="M76.4,59.1h-2.2c-2.9,0-5.2-2.4-5.2-5.2V43.1c0-3.3,2.7-6,6-6h0.7c3.3,0,6,2.7,6,6v10.7
			C81.6,56.7,79.3,59.1,76.4,59.1z"/>
		<line class="st0" x1="70" y1="65.7" x2="80.7" y2="65.7"/>
		<line class="st0" x1="70" y1="69.1" x2="80.7" y2="69.1"/>
	</g>
	<path class="st0" d="M74.8,41.2c-1.5,0.4-1.8,1.8-1.7,3.3"/>
</g>
</svg>
