<?xml version="1.0" encoding="utf-8"?>
<!-- Generator: Adobe Illustrator 23.0.3, SVG Export Plug-In . SVG Version: 6.00 Build 0)  -->
<svg version="1.1" id="Слой_1" xmlns="http://www.w3.org/2000/svg" xmlns:xlink="http://www.w3.org/1999/xlink" x="0px" y="0px"
	 viewBox="0 0 90 90" style="enable-background:new 0 0 90 90;" xml:space="preserve">
<style type="text/css">
	.st0{fill:none;stroke:#2D3547;stroke-width:2;stroke-linecap:round;stroke-linejoin:round;stroke-miterlimit:10;}
	.st1{fill:none;stroke:#2D3547;stroke-width:2;stroke-miterlimit:10;}
	.st2{fill:none;stroke:#2D3547;stroke-width:3;stroke-linecap:round;stroke-linejoin:round;stroke-miterlimit:10;}
	.st3{fill:#2D3547;}
	.st4{fill:none;stroke:#61AAEB;stroke-width:4;stroke-linecap:round;stroke-linejoin:round;stroke-miterlimit:10;}
</style>
<g>
	<path class="st0" d="M29.6,26.3h4.8c1.1,0,2,0.9,2,2V35c0,1.1-0.9,2-2,2h-5.3"/>
	<path class="st1" d="M49.2,37H42c-1.1,0-2-0.9-2-2v-6.7c0-1.1,0.9-2,2-2h7.3c1.1,0,2,0.9,2,2V35C51.2,36.1,50.3,37,49.2,37z"/>
	<path class="st0" d="M29.2,40.6h5.3c1.1,0,2,0.9,2,2v6.7c0,1.1-0.9,2-2,2h-7.3c-1.1,0-2-0.9-2-2"/>
	<path class="st1" d="M49.2,51.3H42c-1.1,0-2-0.9-2-2v-6.7c0-1.1,0.9-2,2-2h7.3c1.1,0,2,0.9,2,2v6.7C51.2,50.4,50.3,51.3,49.2,51.3z
		"/>
	<path class="st1" d="M34.4,65.7h-7.3c-1.1,0-2-0.9-2-2V57c0-1.1,0.9-2,2-2h7.3c1.1,0,2,0.9,2,2v6.7C36.4,64.8,35.5,65.7,34.4,65.7z
		"/>
	<path class="st1" d="M49.2,65.7H42c-1.1,0-2-0.9-2-2V57c0-1.1,0.9-2,2-2h7.3c1.1,0,2,0.9,2,2v6.7C51.2,64.8,50.3,65.7,49.2,65.7z"
		/>
	<g>
		<path class="st2" d="M15.4,21.1V9c0-2.2,1.8-4,4-4h39.9c1.2,0,2.1,0.9,2.1,2.1v6.5c0,1.2-0.9,2.1-2.1,2.1H29"/>
		<path class="st2" d="M15.4,21.1"/>
		<path class="st2" d="M48,84H19.4c-2.2,0-4-1.8-4-4V50.1"/>
		<line class="st0" x1="21.1" y1="15.8" x2="15.4" y2="15.8"/>
		<line class="st2" x1="41.3" y1="78.2" x2="35.6" y2="78.2"/>
		<line class="st0" x1="15.4" y1="71.6" x2="48.2" y2="71.6"/>
		<line class="st2" x1="61.4" y1="7.1" x2="61.4" y2="31.5"/>
	</g>
	<g>
		<path class="st0" d="M23,45.2H8.3c-1.1,0-2-0.9-2-2V28.5c0-1.1,0.9-2,2-2H23c1.1,0,2,0.9,2,2v14.7C25,44.3,24.1,45.2,23,45.2z"/>
		<polyline class="st0" points="6.3,41.8 13.9,33.8 17,36.9 25,29.2 		"/>
	</g>
	<g>
		<path class="st3" d="M80.3,22.8c0.1,1.1,1.7,3.7,3.4,3.7c-1.5,0-2.6,1.3-3.4,3.2c0,0-2-3.3-3.5-3.3C78.3,26.4,80.3,24.2,80.3,22.8
			 M80.3,20.8C80.3,20.8,80.3,20.8,80.3,20.8c-1.1,0-2,0.9-2,2c-0.1,0.5-1,1.6-1.6,1.7c-1.1,0-2,0.9-2,2c0,1,0.8,1.9,1.8,2
			c0.4,0.2,1.4,1.3,2,2.3c0.4,0.6,1,0.9,1.7,0.9c0.1,0,0.1,0,0.2,0c0.8-0.1,1.4-0.6,1.7-1.3c0.5-1.3,1.1-1.9,1.5-1.9
			c1.1,0,2-0.9,2-2c0-1.1-0.9-2-1.9-2c-0.5-0.2-1.3-1.3-1.4-1.9C82.2,21.6,81.3,20.8,80.3,20.8L80.3,20.8z"/>
	</g>
	<g>
		<path class="st3" d="M73.9,17c0,0.7,1,2.2,2,2.2c-0.9,0-1.5,0.8-2,1.9c0,0-1.2-1.9-2.1-1.9C72.7,19.2,73.9,17.9,73.9,17 M73.9,15
			C73.9,15,73.9,15,73.9,15c-1.1,0-1.9,0.8-2,1.8c-0.1,0.1-0.2,0.3-0.3,0.4c-1,0.1-1.8,1-1.8,2c0,1,0.7,1.7,1.6,2
			c0.2,0.2,0.6,0.7,0.8,1c0.4,0.6,1,0.9,1.7,0.9c0.1,0,0.1,0,0.2,0c0.8-0.1,1.4-0.6,1.7-1.3c0.1-0.3,0.3-0.5,0.3-0.6
			c1-0.1,1.8-1,1.8-2c0-1-0.7-1.8-1.7-2c-0.1-0.1-0.3-0.3-0.3-0.5C75.8,15.8,74.9,15,73.9,15L73.9,15z"/>
	</g>
	<g>
		<g>
			<path class="st0" d="M79.9,42.4c2.6,2.1,4.2,5.2,4.2,8.7v33.4"/>
			<path class="st0" d="M59.6,84.5V51.1c0-3.4,1.5-6.4,3.9-8.5"/>
			<path class="st4" d="M65.5,59.5c1.4-2.3,3.7-3.7,6.3-3.7c2.6,0,4.9,1.4,6.3,3.7"/>
			<path class="st4" d="M71.8,63.1L71.8,63.1c-4.6,0-8.4-3.8-8.4-8.4V42.6c0-4.6,3.8-8.4,8.4-8.4h0c4.6,0,8.4,3.8,8.4,8.4v12.2
				C80.2,59.4,76.4,63.1,71.8,63.1z"/>
			<line class="st0" x1="64.9" y1="71.9" x2="78.9" y2="71.9"/>
			<line class="st0" x1="64.9" y1="76.3" x2="78.9" y2="76.3"/>
		</g>
		<path class="st0" d="M72.4,38.8c-2-0.1-4.2,1-4.2,5.5"/>
	</g>
</g>
</svg>
